<svg xmlns="http://www.w3.org/2000/svg" width="24.568" height="24.568" viewBox="0 0 24.568 24.568">
  <g id="pencil" transform="translate(0 -0.002)">
    <g id="Group_84096" data-name="Group 84096" transform="translate(0 0.002)">
      <path id="Path_142108" data-name="Path 142108" d="M23.913,3.989,20.563.636a2.283,2.283,0,0,0-3.16,0L2.4,15.794a.562.562,0,0,0-.141.24L.021,23.857a.559.559,0,0,0,.69.691l7.817-2.235a.561.561,0,0,0,.24-.141L23.913,7.15a2.236,2.236,0,0,0,0-3.161ZM14.97,4.7l2.055,2.055L6.295,17.485l-.77-1.541a.559.559,0,0,0-.5-.309H4.131ZM1.371,23.2,2.1,20.652l1.819,1.819Zm6.446-1.841-2.671.763-2.7-2.7.763-2.671H4.68l.962,1.925a.559.559,0,0,0,.25.25l1.925.962v1.467Zm1.117-.918v-.894a.559.559,0,0,0-.309-.5l-1.541-.77L17.815,7.544,19.87,9.6ZM23.125,6.373l-2.462,2.44L15.756,3.906l2.438-2.46a1.143,1.143,0,0,1,1.579,0l3.35,3.35a1.116,1.116,0,0,1,0,1.577Z" transform="translate(0 -0.002)" fill="#f44336"/>
    </g>
  </g>
</svg>
