<svg xmlns="http://www.w3.org/2000/svg" width="46.417" height="41.572" viewBox="0 0 46.417 41.572">
  <path id="heart_6_" data-name="heart (6)" d="M40.434,3.824A11.809,11.809,0,0,0,31.649,0a11.048,11.048,0,0,0-6.9,2.382,14.118,14.118,0,0,0-2.79,2.913,14.11,14.11,0,0,0-2.79-2.913A11.047,11.047,0,0,0,12.269,0,11.81,11.81,0,0,0,3.484,3.824,13.728,13.728,0,0,0,0,13.2c0,3.714,1.384,7.114,4.356,10.7,2.658,3.208,6.479,6.464,10.9,10.234,1.511,1.288,3.223,2.747,5,4.3a2.578,2.578,0,0,0,3.395,0c1.778-1.555,3.492-3.015,5-4.3,4.424-3.77,8.245-7.026,10.9-10.233,2.972-3.585,4.355-6.985,4.355-10.7a13.726,13.726,0,0,0-3.484-9.374Zm0,0" transform="translate(1.25 1.25)" fill="none" stroke="#858585" stroke-width="2.5"/>
</svg>
