<svg xmlns="http://www.w3.org/2000/svg" xmlns:xlink="http://www.w3.org/1999/xlink" width="87" height="67" viewBox="0 0 87 67">
  <defs>
    <clipPath id="clip-path">
      <rect id="Rectangle_19416" data-name="Rectangle 19416" width="59" height="59" transform="translate(-0.407 -0.124)" fill="#fff" stroke="#707070" stroke-width="1"/>
    </clipPath>
  </defs>
  <g id="Group_57112" data-name="Group 57112" transform="translate(0.014 -0.45)">
    <rect id="Rectangle_19415" data-name="Rectangle 19415" width="87" height="67" rx="5" transform="translate(-0.014 0.45)" fill="#231f20"/>
    <g id="Mask_Group_78" data-name="Mask Group 78" transform="translate(14.393 2.575)" clip-path="url(#clip-path)">
      <g id="mastercard-2" transform="translate(0.421 7.622)">
        <path id="Path_57533" data-name="Path 57533" d="M56.751,31.447v.118h.11a.116.116,0,0,0,.059-.015.053.053,0,0,0,.022-.045.05.05,0,0,0-.022-.044.106.106,0,0,0-.059-.015h-.11Zm.111-.083a.2.2,0,0,1,.132.038.127.127,0,0,1,.046.1A.12.12,0,0,1,57,31.6a.181.181,0,0,1-.106.044l.147.168h-.114l-.136-.167h-.044v.167h-.095v-.446h.207Zm-.029.6a.354.354,0,0,0,.145-.029.379.379,0,0,0,.118-.08.373.373,0,0,0,.08-.118.382.382,0,0,0,0-.292.386.386,0,0,0-.08-.118.38.38,0,0,0-.118-.08.371.371,0,0,0-.145-.028.387.387,0,0,0-.147.028.377.377,0,0,0-.121.08.381.381,0,0,0-.079.413.352.352,0,0,0,.079.118.378.378,0,0,0,.121.08.367.367,0,0,0,.148.029m0-.856a.494.494,0,0,1,.347.142.476.476,0,0,1,.1.526.5.5,0,0,1-.1.153.527.527,0,0,1-.155.1.482.482,0,0,1-.191.038.49.49,0,0,1-.194-.038.5.5,0,0,1-.157-.1.5.5,0,0,1-.1-.158.476.476,0,0,1,.1-.526.466.466,0,0,1,.157-.1.49.49,0,0,1,.194-.038M11.661,29.388a1.466,1.466,0,1,1,1.469,1.55,1.453,1.453,0,0,1-1.469-1.55m3.92,0V26.966H14.528v.59A1.835,1.835,0,0,0,13,26.846a2.546,2.546,0,0,0,0,5.085,1.836,1.836,0,0,0,1.529-.709v.588H15.58V29.388Zm35.575,0a1.466,1.466,0,1,1,1.469,1.55,1.453,1.453,0,0,1-1.469-1.55m3.921,0V25.022H54.024v2.534a1.835,1.835,0,0,0-1.529-.709,2.546,2.546,0,0,0,0,5.085,1.836,1.836,0,0,0,1.529-.709v.588h1.054Zm-26.429-1.6a1.2,1.2,0,0,1,1.225,1.174H27.362a1.247,1.247,0,0,1,1.287-1.174m.021-.944a2.366,2.366,0,0,0-2.412,2.543,2.388,2.388,0,0,0,2.482,2.543,2.941,2.941,0,0,0,1.985-.679l-.516-.78a2.309,2.309,0,0,1-1.409.507,1.345,1.345,0,0,1-1.448-1.186h3.6c.01-.131.021-.263.021-.4a2.323,2.323,0,0,0-2.3-2.543m12.712,2.543a1.466,1.466,0,1,1,1.469,1.55,1.453,1.453,0,0,1-1.469-1.55m3.92,0v-2.42H44.249v.59a1.837,1.837,0,0,0-1.529-.709,2.546,2.546,0,0,0,0,5.085,1.837,1.837,0,0,0,1.529-.709v.588H45.3V29.388Zm-9.866,0a2.446,2.446,0,0,0,2.583,2.543,2.531,2.531,0,0,0,1.741-.577l-.506-.851a2.128,2.128,0,0,1-1.269.436,1.553,1.553,0,0,1,0-3.1,2.134,2.134,0,0,1,1.269.436l.506-.851a2.534,2.534,0,0,0-1.741-.577,2.446,2.446,0,0,0-2.583,2.543m13.573-2.543a1.429,1.429,0,0,0-1.276.709v-.587H46.689v4.842h1.054V29.093c0-.8.344-1.246,1.033-1.246a1.707,1.707,0,0,1,.658.122l.325-.992a2.239,2.239,0,0,0-.75-.132m-28.221.507a3.62,3.62,0,0,0-1.974-.507c-1.227,0-2.016.588-2.016,1.55,0,.789.588,1.276,1.671,1.428l.5.071c.577.081.85.233.85.507,0,.374-.384.588-1.1.588a2.58,2.58,0,0,1-1.61-.507L16.6,31.3a3.493,3.493,0,0,0,2.1.628c1.4,0,2.209-.658,2.209-1.58,0-.851-.638-1.3-1.692-1.448l-.5-.072c-.456-.059-.821-.151-.821-.475,0-.354.344-.567.922-.567a3.123,3.123,0,0,1,1.51.415l.456-.851Zm13.585-.506a1.426,1.426,0,0,0-1.275.709v-.589H32.053v4.842h1.053V29.093c0-.8.344-1.246,1.033-1.246a1.707,1.707,0,0,1,.658.122l.324-.992a2.239,2.239,0,0,0-.75-.132m-8.984.122H23.666V25.5H22.6v1.469h-.982v.962H22.6v2.209c0,1.123.436,1.792,1.682,1.792a2.473,2.473,0,0,0,1.317-.374l-.3-.9a1.949,1.949,0,0,1-.932.274c-.526,0-.7-.325-.7-.81V27.929h1.722ZM9.646,31.809V28.77a1.8,1.8,0,0,0-1.9-1.925,1.874,1.874,0,0,0-1.7.861,1.777,1.777,0,0,0-1.6-.861,1.6,1.6,0,0,0-1.418.719v-.6H1.967v4.842H3.029V29.123a1.133,1.133,0,0,1,1.186-1.287c.7,0,1.053.456,1.053,1.276v2.695H6.333V29.122a1.142,1.142,0,0,1,1.185-1.287c.719,0,1.062.456,1.062,1.276v2.695Z" transform="translate(1.088 13.833)" fill="#fff"/>
        <path id="Path_57534" data-name="Path 57534" d="M38.18,19.273v-.708H38l-.213.486-.212-.486h-.185v.708h.131V18.74l.2.46h.136l.2-.461v.535h.13Zm-1.17,0v-.587h.236v-.119h-.6v.119h.236v.587h.13Z" transform="translate(20.258 10.264)" fill="#f79410"/>
        <path id="Path_57535" data-name="Path 57535" d="M29.818,31.185H13.863V2.511H29.819Z" transform="translate(7.664 1.388)" fill="#ff5f00"/>
        <path id="Path_57536" data-name="Path 57536" d="M22.538,18.236A18.206,18.206,0,0,1,29.5,3.9a18.236,18.236,0,1,0,0,28.674,18.206,18.206,0,0,1-6.965-14.337" transform="translate(0 0)" fill="#eb001b"/>
        <path id="Path_57537" data-name="Path 57537" d="M48.5,18.236A18.235,18.235,0,0,1,19,32.574,18.238,18.238,0,0,0,19,3.9,18.235,18.235,0,0,1,48.5,18.236" transform="translate(10.504 0)" fill="#f79e1b"/>
      </g>
    </g>
  </g>
</svg>
