<svg xmlns="http://www.w3.org/2000/svg" xmlns:xlink="http://www.w3.org/1999/xlink" width="77" height="77" viewBox="0 0 77 77">
  <defs>
    <clipPath id="clip-path">
      <rect id="Rectangle_24072" data-name="Rectangle 24072" width="77" height="77" transform="translate(47.307 475.215)" fill="#fff" stroke="#707070" stroke-width="1"/>
    </clipPath>
  </defs>
  <g id="Mask_Group_250" data-name="Mask Group 250" transform="translate(-47.307 -475.215)" clip-path="url(#clip-path)">
    <g id="Group_83267" data-name="Group 83267" transform="translate(48.997 476.903)">
      <g id="Group_83262" data-name="Group 83262" transform="translate(8.995 8.997)">
        <path id="Path_140203" data-name="Path 140203" d="M53.638,14.686a26.868,26.868,0,0,0-4.59-4.761,27.776,27.776,0,0,0-34.983-.118,26.971,26.971,0,0,0-4.932,5.124A27.809,27.809,0,0,0,49.027,53.061a27.783,27.783,0,0,0,4.611-38.375Zm-.867,31.132v.011A25.659,25.659,0,0,1,14.354,50.6a25.342,25.342,0,0,1-4.162-4.771v-.011A25.672,25.672,0,1,1,57.158,31.482a25.5,25.5,0,0,1-4.386,14.336Z" transform="translate(-3.667 -3.667)" fill="#0a5078"/>
      </g>
      <g id="Group_83263" data-name="Group 83263" transform="translate(0 0)">
        <path id="Path_140204" data-name="Path 140204" d="M69.8,18.25a35.558,35.558,0,0,0-6.074-6.3,36.759,36.759,0,0,0-46.3-.156A35.694,35.694,0,0,0,10.9,18.575a36.8,36.8,0,0,0,52.8,50.46A36.769,36.769,0,0,0,69.8,18.25Zm-1.147,41.2v.014a33.957,33.957,0,0,1-50.842,6.315A33.538,33.538,0,0,1,12.3,59.464V59.45A33.974,33.974,0,1,1,74.458,40.478,33.748,33.748,0,0,1,68.653,59.45Z" transform="translate(-3.667 -3.667)" fill="#0a5078"/>
      </g>
      <g id="Group_83266" data-name="Group 83266" transform="translate(22.903 16.31)">
        <g id="Group_83264" data-name="Group 83264">
          <path id="Path_140205" data-name="Path 140205" d="M42.484,26.257c0,12.827-6.24,20.188-12.7,26.593a1.723,1.723,0,0,1-2.427.009c-4.672-4.565-12.693-12.422-12.693-26.6a13.909,13.909,0,0,1,27.817,0Z" transform="translate(-14.667 -12.349)" fill="#c80a50"/>
        </g>
        <g id="Group_83265" data-name="Group 83265" transform="translate(6.954 6.207)">
          <circle id="Ellipse_3232" data-name="Ellipse 3232" cx="6.954" cy="6.954" r="6.954" fill="#fff"/>
        </g>
      </g>
    </g>
    <g id="Icons" transform="translate(51.008 476.903)">
      <g id="Group_83270" data-name="Group 83270" transform="translate(0 56.213)">
        <g id="Group_83268" data-name="Group 83268">
          <path id="Path_140206" data-name="Path 140206" d="M11.719,43.519a1.451,1.451,0,0,1-2.058.007A14.311,14.311,0,0,1,4.889,32.935a5.8,5.8,0,1,1,11.6,0A14.3,14.3,0,0,1,11.719,43.519Z" transform="translate(-4.889 -27.135)" fill="#fab400"/>
        </g>
        <g id="Group_83269" data-name="Group 83269" transform="translate(2.9 2.9)">
          <ellipse id="Ellipse_3233" data-name="Ellipse 3233" cx="2.9" cy="2.9" rx="2.9" ry="2.9" fill="#fff"/>
        </g>
      </g>
      <g id="Group_83273" data-name="Group 83273" transform="translate(0 0)">
        <g id="Group_83271" data-name="Group 83271">
          <path id="Path_140207" data-name="Path 140207" d="M11.719,19.075a1.451,1.451,0,0,1-2.058.007A14.311,14.311,0,0,1,4.889,8.491a5.8,5.8,0,1,1,11.6,0A14.3,14.3,0,0,1,11.719,19.075Z" transform="translate(-4.889 -2.691)" fill="#fab400"/>
        </g>
        <g id="Group_83272" data-name="Group 83272" transform="translate(2.9 2.9)">
          <ellipse id="Ellipse_3234" data-name="Ellipse 3234" cx="2.9" cy="2.9" rx="2.9" ry="2.9" fill="#fff"/>
        </g>
      </g>
      <g id="Group_83276" data-name="Group 83276" transform="translate(58.001 56.213)">
        <g id="Group_83274" data-name="Group 83274">
          <path id="Path_140208" data-name="Path 140208" d="M36.163,43.519a1.451,1.451,0,0,1-2.058.007,14.311,14.311,0,0,1-4.772-10.591,5.8,5.8,0,1,1,11.6,0A14.3,14.3,0,0,1,36.163,43.519Z" transform="translate(-29.333 -27.135)" fill="#fab400"/>
        </g>
        <g id="Group_83275" data-name="Group 83275" transform="translate(2.9 2.9)">
          <ellipse id="Ellipse_3235" data-name="Ellipse 3235" cx="2.9" cy="2.9" rx="2.9" ry="2.9" fill="#fff"/>
        </g>
      </g>
      <g id="Group_83279" data-name="Group 83279" transform="translate(58.001 0)">
        <g id="Group_83277" data-name="Group 83277" transform="translate(0 0)">
          <path id="Path_140209" data-name="Path 140209" d="M36.163,18.828a1.451,1.451,0,0,1-2.058.007A14.311,14.311,0,0,1,29.333,8.245a5.8,5.8,0,0,1,11.6,0A14.307,14.307,0,0,1,36.163,18.828Z" transform="translate(-29.333 -2.444)" fill="#fab400"/>
        </g>
        <g id="Group_83278" data-name="Group 83278" transform="translate(2.9 2.9)">
          <ellipse id="Ellipse_3236" data-name="Ellipse 3236" cx="2.9" cy="2.9" rx="2.9" ry="2.9" fill="#fff"/>
        </g>
      </g>
    </g>
  </g>
</svg>
