<svg xmlns="http://www.w3.org/2000/svg" xmlns:xlink="http://www.w3.org/1999/xlink" width="38" height="38" viewBox="0 0 38 38">
  <defs>
    <clipPath id="clip-path">
      <rect id="Rectangle_23545" data-name="Rectangle 23545" width="38" height="38" transform="translate(0.137 0.078)" fill="#b31313" stroke="#707070" stroke-width="1"/>
    </clipPath>
  </defs>
  <g id="Mask_Group_154" data-name="Mask Group 154" transform="translate(-0.137 -0.078)" clip-path="url(#clip-path)">
    <g id="free" transform="translate(0.352 0.521)">
      <path id="Path_84353" data-name="Path 84353" d="M20.4.932a2.207,2.207,0,0,1,2.834.407A2.207,2.207,0,0,0,25.492,2a2.207,2.207,0,0,1,2.6,1.189,2.207,2.207,0,0,0,1.982,1.274,2.207,2.207,0,0,1,2.164,1.875,2.207,2.207,0,0,0,1.543,1.78,2.207,2.207,0,0,1,1.548,2.409,2.207,2.207,0,0,0,.979,2.143,2.207,2.207,0,0,1,.807,2.747,2.207,2.207,0,0,0,.335,2.332,2.207,2.207,0,0,1,0,2.863,2.207,2.207,0,0,0-.335,2.332,2.207,2.207,0,0,1-.807,2.747,2.207,2.207,0,0,0-.979,2.143,2.207,2.207,0,0,1-1.548,2.409,2.207,2.207,0,0,0-1.543,1.78A2.207,2.207,0,0,1,30.078,33.9,2.207,2.207,0,0,0,28.1,35.174a2.207,2.207,0,0,1-2.6,1.189,2.207,2.207,0,0,0-2.26.664,2.207,2.207,0,0,1-2.834.407,2.207,2.207,0,0,0-2.356,0,2.207,2.207,0,0,1-2.834-.407,2.207,2.207,0,0,0-2.26-.664,2.207,2.207,0,0,1-2.6-1.189A2.207,2.207,0,0,0,8.361,33.9,2.207,2.207,0,0,1,6.2,32.026a2.207,2.207,0,0,0-1.543-1.78,2.207,2.207,0,0,1-1.548-2.409,2.207,2.207,0,0,0-.979-2.143,2.207,2.207,0,0,1-.807-2.747,2.207,2.207,0,0,0-.335-2.332,2.207,2.207,0,0,1,0-2.863,2.207,2.207,0,0,0,.335-2.332,2.207,2.207,0,0,1,.807-2.747,2.207,2.207,0,0,0,.979-2.143A2.207,2.207,0,0,1,4.655,8.121,2.207,2.207,0,0,0,6.2,6.341,2.207,2.207,0,0,1,8.361,4.466a2.207,2.207,0,0,0,1.982-1.274A2.207,2.207,0,0,1,12.947,2a2.207,2.207,0,0,0,2.26-.664A2.207,2.207,0,0,1,18.042.932a2.207,2.207,0,0,0,2.356,0Z" transform="translate(-0.459 -0.591)" fill="#ff0342"/>
      <path id="Path_84358" data-name="Path 84358" d="M3.18,5.712H1.1L-2.367.457V5.712H-4.442v-8.52h2.075L1.1,2.472v-5.28H3.18ZM6.76-1.145V.578H9.54v1.6H6.76V4.049H9.9V5.712H4.685v-8.52H9.9v1.663ZM22.975-2.808l-2.221,8.52H18.242L16.882.1,15.475,5.712H12.962L10.8-2.808h2.221l1.226,6.2,1.517-6.2h2.282l1.456,6.2,1.238-6.2Z" transform="translate(9.777 17.015)" fill="#f1f2fe"/>
    </g>
  </g>
</svg>
