<svg xmlns="http://www.w3.org/2000/svg" width="36.509" height="41.946" viewBox="0 0 36.509 41.946">
  <path id="share_1_" data-name="share (1)" d="M29.642,28.215a6.85,6.85,0,0,0-5.077,2.248l-11.3-7a6.839,6.839,0,0,0,0-4.979l11.3-7a6.865,6.865,0,1,0-1.319-2.127l-11.3,7a6.866,6.866,0,1,0,0,9.234l11.3,7a6.865,6.865,0,1,0,6.4-4.376ZM25.28,6.866a4.362,4.362,0,1,1,4.362,4.362A4.367,4.367,0,0,1,25.28,6.866ZM6.865,25.336a4.362,4.362,0,1,1,4.362-4.362A4.367,4.367,0,0,1,6.865,25.336ZM25.28,35.081a4.362,4.362,0,1,1,4.362,4.362A4.367,4.367,0,0,1,25.28,35.081Zm0,0" transform="translate(0 0)" fill="#858585"/>
</svg>
