<svg xmlns="http://www.w3.org/2000/svg" width="30" height="30" viewBox="0 0 30 30">
  <g id="Group_84004" data-name="Group 84004" transform="translate(11259 21415)">
    <g id="Rectangle_24361" data-name="Rectangle 24361" transform="translate(-11259 -21415)" fill="#051917" stroke="#707070" stroke-width="1" opacity="0">
      <rect width="30" height="30" stroke="none"/>
      <rect x="0.5" y="0.5" width="29" height="29" fill="none"/>
    </g>
    <g id="right-arrow_2_" data-name="right-arrow (2)" transform="translate(-11252 -21414)">
      <g id="Group_84003" data-name="Group 84003">
        <path id="Path_142032" data-name="Path 142032" d="M19.22,15.014l-12.4,12.4a1.527,1.527,0,0,1-2.155,0L3.757,26.5a1.526,1.526,0,0,1,0-2.155L14.166,13.933,3.745,3.513a1.527,1.527,0,0,1,0-2.155L4.658.445a1.527,1.527,0,0,1,2.155,0L19.22,12.852a1.538,1.538,0,0,1,0,2.162Z" transform="translate(-3.3)" fill="#696969"/>
      </g>
    </g>
  </g>
</svg>
