<svg xmlns="http://www.w3.org/2000/svg" width="37.532" height="49.76" viewBox="0 0 37.532 49.76">
  <g id="shopping-bag" transform="translate(-49)">
    <g id="Group_82926" data-name="Group 82926" transform="translate(49)">
      <path id="Path_84383" data-name="Path 84383" d="M83.887,15.672a4.946,4.946,0,0,0-1.4-3.094,4.292,4.292,0,0,0-3.094-1.3H76.75v-2.3A8.774,8.774,0,0,0,74.1,2.645,8.946,8.946,0,0,0,67.766,0a8.774,8.774,0,0,0-6.339,2.645,8.774,8.774,0,0,0-2.645,6.339v2.3H56.137a4.292,4.292,0,0,0-3.094,1.3,4.946,4.946,0,0,0-1.4,3.094L49,45.218v.349a3.963,3.963,0,0,0,1.248,2.895,4.854,4.854,0,0,0,2.795,1.3h29.4a4.852,4.852,0,0,0,2.845-1.3,3.993,3.993,0,0,0,1.248-2.945v-.349ZM61.527,8.984a6.289,6.289,0,0,1,12.577,0v2.3H61.527Zm22.21,36.584a1.257,1.257,0,0,1-.449,1,2.062,2.062,0,0,1-1.148.549H53.292a1.917,1.917,0,0,1-1.148-.549,1.257,1.257,0,0,1-.449-1v-.15l2.645-29.5a2.29,2.29,0,0,1,.649-1.4,1.625,1.625,0,0,1,1.148-.5h2.645v6.089a1.348,1.348,0,1,0,2.7,0V14.025H73.955v6.089a1.348,1.348,0,1,0,2.7,0V14.025H79.3a1.625,1.625,0,0,1,1.148.5,2.29,2.29,0,0,1,.649,1.4l2.645,29.547v.1Z" transform="translate(-49)"/>
    </g>
  </g>
</svg>
