<svg xmlns="http://www.w3.org/2000/svg" xmlns:xlink="http://www.w3.org/1999/xlink" width="145" height="145" viewBox="0 0 145 145">
  <defs>
    <clipPath id="clip-path">
      <rect id="Rectangle_23621" data-name="Rectangle 23621" width="104" height="104" transform="translate(-0.214 -0.215)" fill="#fff" stroke="#707070" stroke-width="1"/>
    </clipPath>
  </defs>
  <g id="Group_83286" data-name="Group 83286" transform="translate(-54.5 -530.5)">
    <rect id="Rectangle_23620" data-name="Rectangle 23620" width="145" height="145" rx="15" transform="translate(54.5 530.5)" fill="#ecc74f"/>
    <g id="Mask_Group_204" data-name="Mask Group 204" transform="translate(74.714 550.714)" clip-path="url(#clip-path)">
      <g id="_01-Restaurant" data-name="01-Restaurant" transform="translate(12.782 3.03)">
        <path id="Path_139995" data-name="Path 139995" d="M43.273,1.067A39.051,39.051,0,0,0,4.267,40.073c0,29.733,36.487,57.043,38.041,58.191a1.625,1.625,0,0,0,1.932,0C45.793,97.116,82.28,69.806,82.28,40.073A39.051,39.051,0,0,0,43.273,1.067Zm0,68.261A29.255,29.255,0,1,1,72.528,40.073,29.255,29.255,0,0,1,43.273,69.328ZM61.151,31.947a9.982,9.982,0,0,1-4.876,8.932V54.7a3.251,3.251,0,0,1-6.5,0V40.878A9.982,9.982,0,0,1,44.9,31.947c0-5.377,3.646-9.752,8.126-9.752S61.151,26.569,61.151,31.947Zm-19.5-8.126v13A4.881,4.881,0,0,1,36.772,41.7v13a3.251,3.251,0,0,1-6.5,0v-13A4.881,4.881,0,0,1,25.4,36.823v-13a1.625,1.625,0,1,1,3.251,0v8.126H31.9V23.82a1.625,1.625,0,1,1,3.251,0v8.126H38.4V23.82a1.625,1.625,0,1,1,3.251,0Z" transform="translate(-4.267 -1.067)" fill="#fff"/>
      </g>
    </g>
  </g>
</svg>
