<svg xmlns="http://www.w3.org/2000/svg" width="38" height="38" viewBox="0 0 38 38">
  <g id="Search" transform="translate(-0.556 -0.277)">
    <path id="Path_142032" data-name="Path 142032" d="M19,0A19,19,0,1,1,0,19,19,19,0,0,1,19,0Z" transform="translate(0.556 0.277)" fill="#acacac" />
    <g id="layer1" transform="translate(10.702 10.922)">
      <path id="circle2017" d="M9.49,877.317a7.945,7.945,0,1,0,4.948,14.148l3.308,3.306A.884.884,0,1,0,19,893.521l-3.308-3.308a7.933,7.933,0,0,0-6.2-12.9Zm0,1.765a6.18,6.18,0,1,1-6.177,6.177A6.162,6.162,0,0,1,9.49,879.082Z" transform="translate(-1.548 -877.317)" fill="#fff"/>
    </g>
  </g>
</svg>
