<svg xmlns="http://www.w3.org/2000/svg" xmlns:xlink="http://www.w3.org/1999/xlink" width="258.706" height="58.641" viewBox="0 0 258.706 58.641">
  <defs>
    <clipPath id="clip-path">
      <rect id="Rectangle_23608" data-name="Rectangle 23608" width="11.4" height="11.4"/>
    </clipPath>
    <clipPath id="clip-path-4">
      <rect id="Rectangle_23617" data-name="Rectangle 23617" width="11.092" height="12.101" transform="translate(0 0)"/>
    </clipPath>
  </defs>
  <g id="Logo" transform="translate(0 0)">
    <path id="Path_139885" data-name="Path 139885" d="M2.7-162.815H6.226v-1.433q0-4.862,2.047-7.037a7.762,7.762,0,0,1,5.937-2.175,20.4,20.4,0,0,1,6.807.972l-1.279,5.322a11.311,11.311,0,0,0-2.073-.537,13.2,13.2,0,0,0-1.868-.128,3.52,3.52,0,0,0-1.612.307,1.888,1.888,0,0,0-.87.947,4.951,4.951,0,0,0-.358,1.586q-.077.947-.077,2.175h5.629v5.629H12.879v19.959H6.226v-19.959H2.7Zm30.553,6.244a8.668,8.668,0,0,0-2.866-.563,4.691,4.691,0,0,0-2.994.947,4.56,4.56,0,0,0-1.612,2.431v16.53H19.123v-25.588h5.169l.768,3.378h.2a6.977,6.977,0,0,1,2.354-2.917,5.977,5.977,0,0,1,3.48-1.024,9.679,9.679,0,0,1,3.019.563Zm1.331-4.759a21.892,21.892,0,0,1,4.862-1.459,31.336,31.336,0,0,1,5.885-.537,13.363,13.363,0,0,1,4.452.64,6.758,6.758,0,0,1,2.84,1.817,6.771,6.771,0,0,1,1.484,2.815,14.368,14.368,0,0,1,.435,3.685q0,2.252-.154,4.529t-.179,4.478q-.026,2.2.128,4.273a16.093,16.093,0,0,0,.768,3.915H49.675L48.6-140.707h-.256a9.108,9.108,0,0,1-2.84,2.738,8.617,8.617,0,0,1-4.683,1.151,9.13,9.13,0,0,1-3.224-.537,6.98,6.98,0,0,1-2.456-1.535,6.994,6.994,0,0,1-1.586-2.354,7.875,7.875,0,0,1-.563-3.045,7.12,7.12,0,0,1,1.049-3.966,7.588,7.588,0,0,1,3.019-2.61,15,15,0,0,1,4.708-1.382,33.364,33.364,0,0,1,6.116-.23,6.649,6.649,0,0,0-.409-4.12q-.768-1.254-3.429-1.254a23.377,23.377,0,0,0-4.222.409,15.438,15.438,0,0,0-3.659,1.075Zm8.444,19.038a5.115,5.115,0,0,0,3.173-.9,6.248,6.248,0,0,0,1.74-1.919v-3.327a18.3,18.3,0,0,0-3.045-.051,11.11,11.11,0,0,0-2.584.461A4.345,4.345,0,0,0,40.515-147a2.288,2.288,0,0,0-.665,1.689,2.906,2.906,0,0,0,.844,2.226A3.266,3.266,0,0,0,43.022-142.293Zm30.4,5.067v-14.534a8.577,8.577,0,0,0-.9-4.5,3.349,3.349,0,0,0-3.045-1.382,4.794,4.794,0,0,0-3.2,1.1,6.112,6.112,0,0,0-1.868,2.738v16.581H57.761v-25.588h5.271l.768,3.378H64a11.031,11.031,0,0,1,3.122-2.866,9.256,9.256,0,0,1,5.015-1.228,10.333,10.333,0,0,1,3.378.512,5.75,5.75,0,0,1,2.508,1.689,7.673,7.673,0,0,1,1.535,3.2,20.682,20.682,0,0,1,.512,4.99v15.916ZM91.743-147.82H89.952v10.594H83.3v-35.824h6.653v21.136l1.535-.716,5.834-10.184h7.318L98.5-153.092l-2.61,1.945,2.815,2,6.909,11.924H97.986Zm13,4.964,10.082-12.129,2.61-2.2H104.742v-5.629H124.8v5.629l-9.979,12.334-2.559,2H124.8v5.629H104.742Zm20.778-7.165q0-6.5,3.173-10.005t8.9-3.506a13.355,13.355,0,0,1,5.322.972,9.943,9.943,0,0,1,3.736,2.738,11.71,11.71,0,0,1,2.226,4.273,19.425,19.425,0,0,1,.742,5.527q0,6.5-3.147,10.005T137.6-136.51a13.355,13.355,0,0,1-5.322-.972,10.172,10.172,0,0,1-3.762-2.738,11.5,11.5,0,0,1-2.252-4.273A19.426,19.426,0,0,1,125.519-150.021Zm6.858,0a14.9,14.9,0,0,0,.307,3.122,8.7,8.7,0,0,0,.921,2.508,4.445,4.445,0,0,0,1.612,1.663,4.6,4.6,0,0,0,2.38.589,4.374,4.374,0,0,0,3.889-1.894q1.279-1.894,1.279-5.988a11.973,11.973,0,0,0-1.177-5.706A4.167,4.167,0,0,0,137.6-157.9a4.527,4.527,0,0,0-3.838,1.842Q132.377-154.217,132.377-150.021Zm35.159,12.794v-14.534a8.577,8.577,0,0,0-.9-4.5,3.349,3.349,0,0,0-3.045-1.382,4.794,4.794,0,0,0-3.2,1.1,6.112,6.112,0,0,0-1.868,2.738v16.581h-6.653v-25.588h5.271l.768,3.378h.2a11.031,11.031,0,0,1,3.122-2.866,9.256,9.256,0,0,1,5.015-1.228,10.333,10.333,0,0,1,3.378.512,5.75,5.75,0,0,1,2.508,1.689,7.673,7.673,0,0,1,1.535,3.2,20.682,20.682,0,0,1,.512,4.99v15.916Zm30.348-2.2a13.02,13.02,0,0,1-4.171,2.073,18.258,18.258,0,0,1-5.6.844q-6.192,0-9.058-3.608t-2.866-9.9q0-6.755,3.224-10.133t9.058-3.378a14.084,14.084,0,0,1,3.787.512,8.814,8.814,0,0,1,3.275,1.689,8.309,8.309,0,0,1,2.3,3.173,12.443,12.443,0,0,1,.87,4.964,22.373,22.373,0,0,1-.128,2.3q-.128,1.228-.383,2.559h-15.3a7.512,7.512,0,0,0,1.658,4.862q1.5,1.638,4.871,1.638a10.349,10.349,0,0,0,3.749-.64,10.359,10.359,0,0,0,2.524-1.305Zm-9.5-18.782a4.623,4.623,0,0,0-3.843,1.561,7.742,7.742,0,0,0-1.5,4.171h9.468a6.466,6.466,0,0,0-.839-4.248A3.736,3.736,0,0,0,188.387-158.209Z" transform="translate(60.004 183.91)"/>
    <g id="Group_4" data-name="Group 4" transform="translate(0 0)">
      <path id="pin" d="M10.119,28.566A10.13,10.13,0,0,1,0,18.447C0,10.749,8.815,1.089,9.189.517a1.142,1.142,0,0,1,1.912,0c.374.572,9.137,10.232,9.137,17.93A10.13,10.13,0,0,1,10.119,28.566Z" transform="translate(33.865 21.883) rotate(140)" fill="#ffa2ba"/>
      <path id="pin-2" data-name="pin" d="M10.119,0A10.13,10.13,0,0,0,0,10.119c0,7.7,8.815,17.358,9.189,17.93a1.142,1.142,0,0,0,1.911,0c.374-.572,9.137-10.232,9.137-17.93A10.13,10.13,0,0,0,10.119,0Z" transform="translate(15.503 58.641) rotate(-140)" fill="#ffd960"/>
      <path id="pin-3" data-name="pin" d="M10.119,0A10.13,10.13,0,0,0,0,10.119c0,7.7,8.815,17.358,9.189,17.93a1.142,1.142,0,0,0,1.912,0c.374-.572,9.137-10.232,9.137-17.93A10.13,10.13,0,0,0,10.119,0Z" transform="translate(39.259 0) rotate(40)" fill="#b9fba4"/>
      <path id="pin-4" data-name="pin" d="M10.119,28.566A10.13,10.13,0,0,1,0,18.447C0,10.749,8.815,1.089,9.189.517a1.142,1.142,0,0,1,1.912,0c.374.572,9.137,10.232,9.137,17.93A10.13,10.13,0,0,1,10.119,28.566Z" transform="translate(20.897 36.758) rotate(-40)" fill="#8cb4fc"/>
      <g id="Mask_Group_4" data-name="Mask Group 4" transform="translate(9.497 37.651)" clip-path="url(#clip-path)">
        <g id="_x33_5_Cutlery" transform="translate(1.939 0)">
          <g id="Group_3" data-name="Group 3" transform="translate(0 0)">
            <path id="Path_142013" data-name="Path 142013" d="M4.679,2.661a1.805,1.805,0,0,1-.69,1.49,1,1,0,0,0-.4.813V6.213a33.926,33.926,0,0,0,.427,4.031c0,.457-.169,1.133-.659,1.133-.525,0-.66-.676-.66-1.133a29.508,29.508,0,0,0,.427-3.963V4.964a1,1,0,0,0-.4-.813,1.809,1.809,0,0,1-.69-1.49C2.041,1.549,2.688,0,3.361,0S4.679,1.549,4.679,2.661Z" transform="translate(-2.041 0)"/>
            <path id="Path_142014" data-name="Path 142014" d="M7.179,2.172A2.757,2.757,0,0,1,6.969,3.7a2.848,2.848,0,0,0-.449,1.6V6.646c0,1.731.427,2.881.427,3.621,0,.457-.17,1.133-.66,1.133-.524,0-.66-.676-.66-1.133a30.4,30.4,0,0,0,.427-3.539v-1.5a3.059,3.059,0,0,0-.472-1.566A2.869,2.869,0,0,1,5.4,2.167L5.57.087A.1.1,0,0,1,5.664,0h.017a.1.1,0,0,1,.095.095v2.37a.108.108,0,0,0,.216,0V.095A.1.1,0,0,1,6.086,0a.1.1,0,0,1,.1.095v2.37a.108.108,0,0,0,.216,0V.095a.095.095,0,1,1,.189,0v2.37a.108.108,0,0,0,.216,0V.095A.1.1,0,0,1,6.9,0h.016a.1.1,0,0,1,.095.087Z" transform="translate(-2.208 0)"/>
            <path id="Path_142015" data-name="Path 142015" d="M9.868,5.575a.762.762,0,0,1-.229.528.754.754,0,0,1-.531.217.245.245,0,0,0-.245.244V7.981c0,.44.26,1.841.365,2.838a.506.506,0,1,1-1.01.052V.222A.22.22,0,0,1,8.564.041c.991.734,1.35,3.778,1.3,5.534Z" transform="translate(-2.35 0)"/>
          </g>
        </g>
      </g>
      <g id="Mask_Group_1" data-name="Mask Group 1" transform="translate(33.865 9.59)" clip-path="url(#clip-path)">
        <g id="Group_2" data-name="Group 2" transform="translate(0.431 0.309)">
          <path id="Path_139877" data-name="Path 139877" d="M37.826,91.318A1.087,1.087,0,1,0,36.739,92.4,1.087,1.087,0,0,0,37.826,91.318Zm-1.788,0a.7.7,0,1,1,.7.7A.7.7,0,0,1,36.038,91.318Zm0,0" transform="translate(-33.113 -81.622)"/>
          <path id="Path_139878" data-name="Path 139878" d="M78.92,92.4a1.087,1.087,0,1,0-1.086-1.087A1.087,1.087,0,0,0,78.92,92.4Zm0-1.788a.7.7,0,1,1-.7.7.7.7,0,0,1,.7-.7Zm0,0" transform="translate(-71.269 -81.622)"/>
          <path id="Path_139879" data-name="Path 139879" d="M1.1.385h.313a.782.782,0,0,1,.776.66L3.12,6.927a1.166,1.166,0,0,0,1.157.988h5.75a.193.193,0,0,0,0-.385H4.277A.782.782,0,0,1,3.5,6.87l-.158-1H9.235a1.172,1.172,0,0,0,1.106-.79l1.093-3.155a.193.193,0,0,0-.182-.256H2.678L2.571.986A1.166,1.166,0,0,0,1.413,0H1.1a.193.193,0,1,0,0,.385Zm9.881,1.67-1.005,2.9a.786.786,0,0,1-.742.528H3.282L2.739,2.054Zm0,0" transform="translate(-0.908 0)"/>
          <g id="Path_142003" data-name="Path 142003" transform="translate(2.748 8.816)">
            <path id="Path_142008" data-name="Path 142008" d="M.685,1.342C.413,1.342.069,1.13.069,1A.7.7,0,0,1,.32.631.825.825,0,0,1,.75.393a.374.374,0,0,1,.373.373C1.124,1.015.848,1.342.685,1.342Z" transform="translate(0.305 -0.02)"/>
            <path id="Path_142009" data-name="Path 142009" d="M.731,0a.747.747,0,0,1,.747.747A1,1,0,0,1,.665,1.7c-.412,0-.989-.3-.989-.715A1.3,1.3,0,0,1,.731,0Z" transform="translate(0.324 0)"/>
          </g>
          <g id="Path_142004" data-name="Path 142004" transform="translate(6.754 8.816)">
            <path id="Path_142010" data-name="Path 142010" d="M.675,1.342a1.175,1.175,0,0,1-.8-.389A1.37,1.37,0,0,1,.741.393a.374.374,0,0,1,.373.373C1.114,1.015.838,1.342.675,1.342Z" transform="translate(0.496 -0.02)"/>
            <path id="Path_142011" data-name="Path 142011" d="M.72.75A1.069,1.069,0,0,0,.429.889.962.962,0,0,0,.6.943.453.453,0,0,0,.72.75m0-.75a.747.747,0,0,1,.747.747A1,1,0,0,1,.656,1.7C.243,1.7-.516,1.346-.516.933S.309,0,.721,0Z" transform="translate(0.516 0)"/>
          </g>
          <path id="Path_142002" data-name="Path 142002" d="M5.261,5.8h8.572L12.525,9.154,6.047,9.23Z" transform="translate(-3.575 -3.691)" stroke="#000" stroke-width="0.786"/>
        </g>
      </g>
      <g id="Mask_Group_3" data-name="Mask Group 3" transform="translate(33.865 37.651)" clip-path="url(#clip-path)">
        <path id="Path_142012" data-name="Path 142012" d="M42.092,34.564V37.82H38.836a.408.408,0,0,0-.408.408v3.256a.408.408,0,0,0,.408.408h3.256v3.256a.408.408,0,0,0,.408.408h3.256a.408.408,0,0,0,.408-.408V41.892H49.42a.408.408,0,0,0,.408-.408V38.228a.408.408,0,0,0-.408-.408H46.164V34.564a.408.408,0,0,0-.408-.408H42.5a.408.408,0,0,0-.408.408Z" transform="translate(-38.428 -34.156)"/>
      </g>
      <path id="Path_142001" data-name="Path 142001" d="M3.58,2.631" transform="translate(30.401 10.565)" fill="none" stroke="#707070" stroke-width="1"/>
      <path id="Path_142007" data-name="Path 142007" d="M3.58,2.631" transform="translate(30.401 42.814)" fill="none" stroke="#707070" stroke-width="1"/>
      <g id="Mask_Group_193" data-name="Mask Group 193" transform="translate(9.318 9.23)" clip-path="url(#clip-path-4)">
        <g id="Group_1" data-name="Group 1" transform="translate(-0.025 0.732)">
          <path id="Path_142000" data-name="Path 142000" d="M4.638,3.088l-.045-.039A2.339,2.339,0,0,0,1.727.16L3.052,1.485,2.7,2.783l-1.3.347L.08,1.807A2.341,2.341,0,0,0,3.069,4.641l.007.007L8.529,10.1a1.1,1.1,0,1,0,1.562-1.563ZM9.405,9.917a.422.422,0,1,1,.3-.123.422.422,0,0,1-.3.123Z" transform="translate(0 -0.078)"/>
          <g id="fountain-pen_2_" data-name="fountain-pen (2)" transform="translate(1.122 0)">
            <g id="_44_Fountain_pen" data-name="44 Fountain pen" transform="translate(1.184 1.112)">
              <path id="Path_142028" data-name="Path 142028" d="M35.565,10.622a.362.362,0,0,0,.031-.535l-.757-.757a.357.357,0,0,0-.5,0L31.561,12.1l1.261,1.261L35.187,11a.535.535,0,0,1,0,.757l-1.32,1.32a.178.178,0,0,0-.049.161l.042.21a.178.178,0,0,0,.3.091l1.4-1.4a1.07,1.07,0,0,0,0-1.513Z" transform="translate(-27.651 -9.226)"/>
              <path id="Path_142029" data-name="Path 142029" d="M0,0H4.993V1.427H0Z" transform="translate(0 7.039) rotate(-45)"/>
            </g>
            <g id="Layer_32" data-name="Layer 32" transform="translate(0 0)">
              <path id="Path_142030" data-name="Path 142030" d="M13.132,3.2a.716.716,0,0,0-1.009,0l-.442.442a.462.462,0,0,0-.48.293.534.534,0,0,0-.465.148L7.962,6.855a.211.211,0,0,1-.027.034L7.569,7.5,4.054,11.016a.188.188,0,0,0,.033.285.61.61,0,0,1-.411.167.178.178,0,0,0-.169.122l-.5,1.5a.182.182,0,0,0,.232.232l1.5-.5a.179.179,0,0,0,.122-.168.611.611,0,0,1,.167-.412.188.188,0,0,0,.285.033L8.83,8.762,9.441,8.4c.006,0,.008-.009.013-.013l.021-.014,2.2-2.2a.356.356,0,0,1-.091.343l-1.32,1.319a.356.356,0,0,0-.1.322l.042.21a.359.359,0,0,0,.6.182l1.4-1.4A1.25,1.25,0,0,0,12.326,5.5a.536.536,0,0,0,.072-.368.466.466,0,0,0,.3-.483l.438-.438a.716.716,0,0,0,0-1.009ZM4.517,12.523l-.686.229.475-.475c.166-.161-.091-.418-.252-.252l-.475.475.229-.686a.9.9,0,0,0,.533-.258l.434.434A.9.9,0,0,0,4.517,12.523Zm7.165-8.5.631.631a.089.089,0,1,1-.126.126l-.631-.631a.089.089,0,0,1,.127-.125Zm-.693.315a.179.179,0,0,1,.252,0L12,5.09a.179.179,0,0,1,0,.252L9.349,7.99,8.341,6.982ZM5.188,11.9l-.756-.756L7.71,7.864l.757.756ZM8.747,8.4l-.812-.812.189-.315.938.938Zm3.22-1.51-1.4,1.4-.042-.21,1.32-1.319a.715.715,0,0,0,.11-.867l.129-.129A.893.893,0,0,1,11.967,6.886Zm.913-2.931-.378.378-.5-.5.378-.378a.357.357,0,1,1,.5.5Z" transform="translate(-2.995 -2.991)"/>
            </g>
          </g>
        </g>
      </g>
    </g>
  </g>
</svg>
